<?xml version="1.0" encoding="UTF-8"?>
<svg xmlns="http://www.w3.org/2000/svg" xmlns:xlink="http://www.w3.org/1999/xlink" width="128px" height="130px" viewBox="0 0 128 130" version="1.1">
<g id="surface1">
<path style=" stroke:none;fill-rule:nonzero;fill:rgb(0%,0%,0%);fill-opacity:1;" d="M 53.308594 48.71875 L 67.546875 39.230469 C 62.703125 25.0625 69.265625 9.523438 82.800781 3.101562 C 96.335938 -3.316406 112.535156 1.429688 120.460938 14.132812 C 128.382812 26.835938 125.507812 43.457031 113.777344 52.769531 C 102.046875 62.078125 85.191406 61.117188 74.597656 50.53125 C 74.140625 50.070312 73.699219 49.59375 73.277344 49.109375 L 58.152344 59.191406 C 58.691406 61.433594 58.957031 63.734375 58.957031 66.042969 C 58.953125 67.578125 58.832031 69.113281 58.597656 70.632812 L 75.640625 81.765625 C 85.148438 70.089844 101.964844 67.515625 114.535156 75.8125 C 127.105469 84.109375 131.332031 100.578125 124.308594 113.894531 C 117.285156 127.210938 101.300781 133.039062 87.34375 127.371094 C 73.386719 121.703125 66.003906 106.386719 70.269531 91.953125 L 54.5 81.609375 C 47.886719 92.25 35.257812 97.542969 23.023438 94.808594 C 10.785156 92.074219 1.621094 81.902344 0.179688 69.460938 C -1.265625 57.015625 5.328125 45.023438 16.613281 39.5625 C 27.898438 34.101562 41.402344 36.371094 50.28125 45.21875 C 51.375 46.308594 52.386719 47.480469 53.308594 48.71875 Z M 43.695312 79.128906 C 39.929688 82.90625 34.816406 85.03125 29.484375 85.03125 C 24.148438 85.03125 19.035156 82.90625 15.273438 79.128906 L 13.507812 76.820312 L 14.777344 75.828125 C 17.414062 74.269531 21.394531 74.679688 23.988281 72.867188 C 24.175781 72.5625 24.34375 72.246094 24.484375 71.917969 C 24.726562 71.359375 24.949219 70.757812 25.085938 70.347656 C 24.511719 69.632812 23.988281 68.882812 23.515625 68.101562 L 21.921875 65.589844 C 21.410156 64.914062 21.097656 64.113281 21.011719 63.269531 C 21 62.984375 21.050781 62.699219 21.171875 62.4375 C 21.289062 62.179688 21.480469 61.960938 21.71875 61.804688 C 21.835938 61.722656 21.964844 61.65625 22.101562 61.605469 C 21.992188 60.089844 21.964844 58.566406 22.027344 57.050781 C 22.058594 56.691406 22.128906 56.339844 22.226562 55.996094 C 22.667969 54.554688 23.628906 53.332031 24.917969 52.558594 C 25.621094 52.121094 26.378906 51.78125 27.175781 51.554688 C 27.683594 51.417969 26.742188 49.792969 27.273438 49.742188 C 29.804688 49.476562 33.910156 51.789062 35.714844 53.707031 C 36.679688 54.789062 37.234375 56.171875 37.289062 57.617188 L 37.183594 61.753906 C 37.605469 61.859375 37.929688 62.191406 38.027344 62.617188 C 38.113281 63.375 37.960938 64.136719 37.582031 64.800781 L 35.769531 67.792969 C 35.148438 68.902344 34.398438 69.933594 33.53125 70.863281 L 33.773438 71.210938 C 34.121094 71.753906 34.515625 72.265625 34.957031 72.738281 C 37.066406 74.226562 42.140625 74.585938 44.105469 75.671875 L 44.179688 75.671875 L 45.46875 76.726562 C 44.929688 77.519531 44.34375 78.28125 43.714844 79.003906 Z M 46.4375 49.109375 C 38.351562 41.023438 25.671875 39.773438 16.160156 46.121094 C 6.644531 52.46875 2.945312 64.648438 7.324219 75.210938 C 11.699219 85.769531 22.933594 91.773438 34.15625 89.542969 C 45.375 87.3125 53.457031 77.472656 53.457031 66.042969 C 53.464844 59.691406 50.941406 53.597656 46.4375 49.109375 Z M 113.023438 112.640625 C 106.945312 119.378906 90.332031 119.84375 84.074219 113.1875 L 84.074219 111.777344 C 84.074219 108.148438 90.109375 108.085938 93.328125 106.15625 C 95.441406 104.878906 95.101562 103.59375 95.09375 101.472656 L 91.664062 101.472656 C 82.882812 101.472656 88.664062 102.171875 89.859375 92.628906 C 91.640625 79.160156 105.222656 79.152344 107.230469 92.628906 C 108.515625 101.8125 113.984375 101.441406 105.425781 101.441406 L 101.996094 101.441406 C 101.996094 103.785156 101.613281 104.976562 104.042969 106.292969 C 106.46875 107.609375 113.011719 108.277344 113.011719 111.566406 L 113.011719 112.621094 Z M 115.484375 83.402344 C 107.402344 75.3125 94.734375 74.054688 85.214844 80.386719 C 75.699219 86.722656 71.984375 98.890625 76.34375 109.457031 C 80.699219 120.019531 91.917969 126.039062 103.140625 123.832031 C 114.359375 121.628906 122.460938 111.8125 122.492188 100.386719 C 122.5 94.035156 119.972656 87.941406 115.472656 83.453125 Z M 109.710938 41.410156 C 105.945312 45.1875 100.832031 47.3125 95.5 47.3125 C 90.164062 47.3125 85.050781 45.1875 81.289062 41.410156 L 79.523438 39.113281 L 80.800781 38.175781 C 83.441406 36.613281 87.417969 37.023438 90.015625 35.210938 C 90.199219 34.914062 90.363281 34.605469 90.5 34.285156 C 90.742188 33.722656 90.957031 33.125 91.101562 32.710938 C 90.523438 32 89.996094 31.25 89.519531 30.464844 L 87.925781 27.933594 C 87.421875 27.257812 87.105469 26.457031 87.019531 25.617188 C 87.003906 25.328125 87.058594 25.042969 87.175781 24.78125 C 87.292969 24.523438 87.484375 24.300781 87.726562 24.148438 C 87.84375 24.0625 87.976562 23.996094 88.117188 23.949219 C 88 22.433594 87.976562 20.914062 88.042969 19.394531 C 88.074219 19.039062 88.136719 18.683594 88.230469 18.339844 C 88.675781 16.898438 89.636719 15.671875 90.933594 14.902344 C 91.628906 14.441406 92.390625 14.085938 93.191406 13.847656 C 93.699219 13.699219 92.761719 12.085938 93.277344 12.035156 C 95.820312 11.769531 99.914062 14.078125 101.71875 16 C 102.683594 17.074219 103.238281 18.457031 103.28125 19.898438 L 103.1875 24.042969 C 103.605469 24.15625 103.925781 24.488281 104.019531 24.910156 C 104.109375 25.664062 103.957031 26.425781 103.589844 27.089844 L 101.710938 30.160156 C 101.09375 31.273438 100.34375 32.304688 99.472656 33.230469 L 99.714844 33.578125 C 100.066406 34.121094 100.464844 34.632812 100.90625 35.105469 C 103.019531 36.582031 108.105469 36.941406 110.058594 38.039062 L 110.140625 38.039062 L 111.429688 39.089844 C 110.890625 39.882812 110.300781 40.640625 109.667969 41.359375 Z M 112.441406 12.730469 C 104.355469 4.644531 91.679688 3.394531 82.164062 9.742188 C 72.652344 16.089844 68.953125 28.269531 73.328125 38.832031 C 77.703125 49.390625 88.9375 55.394531 100.160156 53.164062 C 111.378906 50.933594 119.460938 41.09375 119.460938 29.664062 C 119.472656 23.3125 116.945312 17.21875 112.441406 12.730469 Z M 112.441406 12.730469 "/>
</g>
</svg>
