<svg xmlns="http://www.w3.org/2000/svg" width="50" height="50" viewBox="0 0 50 50">
  <g id="Group_3" data-name="Group 3" transform="translate(-155 -41)">
    <circle id="Ellipse_2" data-name="Ellipse 2" cx="25" cy="25" r="25" transform="translate(155 41)" fill="#fff"/>
    <path id="Path_1" data-name="Path 1" d="M11.9-19.278a10.913,10.913,0,0,1,6.768,2.009A8.559,8.559,0,0,1,21.98-11.83H16.386a4.314,4.314,0,0,0-1.7-1.87,5.2,5.2,0,0,0-2.751-.7A5.14,5.14,0,0,0,7.918-12.71,6.565,6.565,0,0,0,6.4-8.152,6.673,6.673,0,0,0,8-3.361a5.96,5.96,0,0,0,4.528,1.669A5.468,5.468,0,0,0,15.83-2.728a5.518,5.518,0,0,0,2.009-2.952H11.163v-3.8h11.1v5.223A10.655,10.655,0,0,1,20.281-.7,10.183,10.183,0,0,1,16.8,1.955a11.011,11.011,0,0,1-4.837,1.02A11.491,11.491,0,0,1,6.187,1.568,9.633,9.633,0,0,1,2.37-2.372,12.143,12.143,0,0,1,1.026-8.152,12.143,12.143,0,0,1,2.37-13.931a9.661,9.661,0,0,1,3.8-3.941A11.341,11.341,0,0,1,11.9-19.278Z" transform="translate(167.974 74.278)" fill="#b28af8"/>
  </g>
</svg>
