<svg xmlns="http://www.w3.org/2000/svg" width="18.911" height="13.001" viewBox="0 0 18.911 13.001">
  <g id="youtube" transform="translate(1.106 -79.239)">
    <g id="Group_475" data-name="Group 475" transform="translate(0 80)">
      <path id="Path_636" data-name="Path 636" d="M18.107,81.253c-.513-.912-1.07-1.08-2.2-1.144S11.925,80,9.458,80s-5.32.032-6.451.108S1.318,80.339.8,81.253,0,83.734,0,86.5v.009c0,2.752.272,4.333.8,5.235S1.875,92.819,3.006,92.9,6.987,93,9.458,93s5.314-.039,6.448-.1,1.69-.242,2.2-1.155c.533-.9.8-2.483.8-5.235V86.5C18.911,83.734,18.642,82.164,18.107,81.253ZM7.092,90.047V82.955L13,86.5Z" transform="translate(-1.106 -80.761)" fill="#fff"/>
    </g>
  </g>
</svg>
